<?xml version="1.0" encoding="UTF-8" standalone="no"?>
<svg
   xmlns:ns0="http://www.iki.fi/pav/software/textext/"
   xmlns:dc="http://purl.org/dc/elements/1.1/"
   xmlns:cc="http://creativecommons.org/ns#"
   xmlns:rdf="http://www.w3.org/1999/02/22-rdf-syntax-ns#"
   xmlns:svg="http://www.w3.org/2000/svg"
   xmlns="http://www.w3.org/2000/svg"
   width="64.801819mm"
   height="47.100643mm"
   viewBox="0 0 97.202726 70.650964"
   version="1.1"
   id="svg8">
  <defs
     id="defs2">
    <marker
       orient="auto"
       refY="0"
       refX="0"
       id="DotL"
       style="overflow:visible">
      <path
         id="path4625"
         d="m -2.5,-1 c 0,2.76 -2.24,5 -5,5 -2.76,0 -5,-2.24 -5,-5 0,-2.76 2.24,-5 5,-5 2.76,0 5,2.24 5,5 z"
         style="fill:#000000;fill-opacity:1;fill-rule:evenodd;stroke:#000000;stroke-width:1.00000003pt;stroke-opacity:1"
         transform="matrix(0.8,0,0,0.8,5.92,0.8)" />
    </marker>
  </defs>
  <metadata
     id="metadata5">
    <rdf:RDF>
      <cc:Work
         rdf:about="">
        <dc:format>image/svg+xml</dc:format>
        <dc:type
           rdf:resource="http://purl.org/dc/dcmitype/StillImage" />
        <dc:title></dc:title>
      </cc:Work>
    </rdf:RDF>
  </metadata>
  <g
     transform="translate(-37.690855,-63.683257)"
     id="layer1">
    <path
       style="fill:none;fill-rule:evenodd;stroke:#000000;stroke-width:3;stroke-linecap:round;stroke-linejoin:round;stroke-miterlimit:4;stroke-dasharray:none;stroke-opacity:1"
       d="m 77.585855,69.09155 4.861843,5.657418 43.629312,50.768662"
       id="path4520" />
    <path
       style="fill:none;fill-rule:evenodd;stroke:#000000;stroke-width:1;stroke-linecap:butt;stroke-linejoin:miter;stroke-miterlimit:4;stroke-dasharray:none;stroke-opacity:1"
       d="M 37.690855,68.65072 H 134.78338"
       id="path4524" />
    <circle
       style="opacity:1;fill:#000000;fill-opacity:1;stroke:#000004;stroke-width:0;stroke-linecap:round;stroke-linejoin:miter;stroke-miterlimit:4;stroke-dasharray:none;stroke-dashoffset:0;stroke-opacity:1"
       id="path4526"
       cx="125.63618"
       cy="125.07681"
       r="9.2574062" />
    <circle
       style="opacity:1;fill:none;fill-opacity:1;stroke:#000004;stroke-width:2;stroke-linecap:round;stroke-linejoin:miter;stroke-miterlimit:4;stroke-dasharray:none;stroke-dashoffset:0;stroke-opacity:1"
       id="path4526-4"
       cx="77.585854"
       cy="68.650719"
       r="3.9674616" />
    <path
       style="fill:none;fill-rule:evenodd;stroke:#000000;stroke-width:1;stroke-linecap:butt;stroke-linejoin:miter;stroke-miterlimit:4;stroke-dasharray:1, 1;stroke-dashoffset:0;stroke-opacity:1"
       d="m 77.585855,69.09155 v 36.80919"
       id="path4560" />
    <path
       style="fill:none;fill-rule:evenodd;stroke:#000000;stroke-width:0.26458332px;stroke-linecap:butt;stroke-linejoin:miter;stroke-opacity:1"
       d="m 76.704197,89.810499 c 0,0 8.972432,-0.225396 12.499061,-5.074513"
       id="path4562" />
    <g
       style="font-style:normal;font-variant:normal;font-weight:normal;font-stretch:normal;letter-spacing:normal;word-spacing:normal;text-anchor:start;fill:none;fill-opacity:1;fill-rule:evenodd;stroke:#000000;stroke-width:0.49583691;stroke-linecap:butt;stroke-linejoin:miter;stroke-miterlimit:10.43299961;stroke-dasharray:none;stroke-dashoffset:0;stroke-opacity:1"
       id="content"
       transform="matrix(1.4348226,0,0,-1.4348226,-131.48129,1042.6173)"
       xml:space="preserve"
       stroke-miterlimit="10.433"
       font-style="normal"
       font-variant="normal"
       font-weight="normal"
       font-stretch="normal"
       font-size-adjust="none"
       letter-spacing="normal"
       word-spacing="normal"
       ns0:version="0.8.0"
       ns0:texconverter="pdflatex"
       ns0:pdfconverter="pstoedit"
       ns0:text="$\\theta$"
       ns0:preamble="D:\\Programs\\Inkscape\\share\\extensions\\default_packages.tex"
       ns0:scale="2.01667525188"
       ns0:alignment="middle center"
       ns0:jacobian_sqrt="0.711438">
<path
   style="fill:#000000;stroke-width:0"
   d="m 153.25,662.2 v 0.07 0.06 l -0.01,0.07 v 0.08 l -0.01,0.07 v 0.08 l -0.01,0.08 -0.01,0.09 -0.02,0.08 -0.01,0.08 -0.02,0.09 -0.02,0.08 -0.02,0.09 -0.03,0.08 -0.03,0.09 -0.03,0.08 -0.03,0.08 -0.04,0.07 -0.04,0.08 -0.04,0.07 -0.05,0.06 -0.05,0.07 -0.05,0.06 -0.06,0.05 -0.06,0.05 -0.04,0.02 -0.03,0.03 -0.03,0.02 -0.04,0.01 -0.04,0.02 -0.03,0.02 -0.04,0.01 -0.04,0.01 -0.04,0.01 -0.05,0.01 -0.04,0.01 h -0.04 l -0.05,0.01 h -0.05 l -0.01,-0.22 c 0.49,0 0.55,-0.64 0.55,-1.2 0,-0.49 -0.08,-1 -0.32,-1.98 h -2.08 c 0.17,0.64 0.37,1.43 0.77,2.14 0.27,0.48 0.63,1.04 1.08,1.04 l 0.01,0.22 c -1.38,0 -2.92,-2.8 -2.92,-5.08 0,-0.93 0.29,-2.03 1.2,-2.03 v 0.21 c -0.33,0 -0.54,0.29 -0.54,1.22 0,0.41 0.06,0.99 0.32,1.96 h 2.07 c -0.11,-0.45 -0.32,-1.3 -0.7,-2.01 -0.35,-0.68 -0.72,-1.17 -1.15,-1.17 v -0.21 c 1.4,0 2.92,2.85 2.92,5.07 z"
   id="path4901" />
</g>    <g
       style="font-style:normal;font-variant:normal;font-weight:normal;font-stretch:normal;letter-spacing:normal;word-spacing:normal;text-anchor:start;fill:none;fill-opacity:1;fill-rule:evenodd;stroke:#000000;stroke-width:0.09373865;stroke-linecap:butt;stroke-linejoin:miter;stroke-miterlimit:10.43299961;stroke-dasharray:none;stroke-dashoffset:0;stroke-opacity:1"
       ns0:jacobian_sqrt="2.6889"
       inkscapeversion="0.92.3"
       ns0:alignment="middle center"
       ns0:scale="2.01667525188"
       ns0:preamble="D:\\Programs\\Inkscape\\share\\extensions\\default_packages.tex"
       ns0:text="\\center $Nonlinear$\\\\ $Pendulum$"
       ns0:pdfconverter="pstoedit"
       ns0:texconverter="pdflatex"
       ns0:version="0.8.0"
       word-spacing="normal"
       letter-spacing="normal"
       font-size-adjust="none"
       font-stretch="normal"
       font-weight="normal"
       font-variant="normal"
       font-style="normal"
       stroke-miterlimit="10.433"
       xml:space="preserve"
       transform="matrix(1.0584615,0,0,-1.0584614,-246.10752,813.27817)"
       id="g5138">
<path
   id="path5102"
   style="fill:#000000;fill-opacity:1;stroke:#000000;stroke-width:0.09373865;stroke-opacity:1;stroke-miterlimit:10.43299961;stroke-dasharray:none"
   d="m 289.58,662.98 0.02,0.07 0.01,0.04 0.02,0.03 0.01,0.04 0.01,0.03 0.02,0.03 0.01,0.04 0.02,0.03 0.02,0.03 0.02,0.03 0.02,0.03 0.02,0.02 0.03,0.03 0.02,0.03 0.03,0.02 0.03,0.03 0.03,0.02 0.04,0.02 0.04,0.02 0.04,0.02 0.04,0.02 0.04,0.01 0.05,0.02 0.05,0.01 0.05,0.02 0.06,0.01 0.06,0.01 0.06,0.01 h 0.07 l 0.07,0.01 h 0.03 0.04 c 0.05,0 0.17,0.01 0.17,0.2 0,0.01 0,0.11 -0.13,0.11 -0.33,0 -0.68,-0.03 -1.01,-0.03 -0.33,0 -0.68,0.03 -1.01,0.03 -0.06,0 -0.18,0 -0.18,-0.2 0,-0.11 0.1,-0.11 0.18,-0.11 0.56,-0.01 0.68,-0.22 0.68,-0.43 0,-0.04 -0.03,-0.18 -0.03,-0.21 l -1.12,-4.42 -2.21,5.18 c -0.08,0.18 -0.09,0.19 -0.32,0.19 h -1.33 c -0.2,0 -0.29,0 -0.29,-0.2 0,-0.11 0.09,-0.11 0.28,-0.11 0.05,0 0.68,0 0.68,-0.09 l -1.34,-5.33 c -0.1,-0.4 -0.27,-0.72 -1.08,-0.75 -0.06,0 -0.17,-0.01 -0.17,-0.2 0,-0.06 0.05,-0.11 0.13,-0.11 0.32,0 0.67,0.04 1,0.04 0.34,0 0.7,-0.04 1.03,-0.04 0.05,0 0.18,0 0.18,0.2 0,0.1 -0.09,0.11 -0.2,0.11 -0.58,0.02 -0.66,0.24 -0.66,0.44 0,0.07 0.01,0.12 0.04,0.23 l 1.32,5.24 c 0.04,-0.06 0.04,-0.08 0.09,-0.17 l 2.48,-5.86 c 0.07,-0.16 0.1,-0.19 0.19,-0.19 0.11,0 0.11,0.04 0.16,0.21 z" />
<path
   id="path5104"
   style="fill:#000000;fill-opacity:1;stroke:#000000;stroke-width:0.09373865;stroke-opacity:1;stroke-miterlimit:10.43299961;stroke-dasharray:none"
   d="m 295.81,659.95 v 0.09 l -0.01,0.1 -0.01,0.09 -0.01,0.09 -0.02,0.08 -0.02,0.09 -0.02,0.08 -0.03,0.08 -0.03,0.07 -0.04,0.07 -0.03,0.07 -0.05,0.07 -0.04,0.07 -0.05,0.06 -0.05,0.06 -0.05,0.05 -0.05,0.06 -0.06,0.05 -0.06,0.04 -0.06,0.05 -0.07,0.04 -0.06,0.03 -0.07,0.04 -0.07,0.03 -0.08,0.03 -0.07,0.02 -0.08,0.02 -0.08,0.02 -0.08,0.01 -0.08,0.01 h -0.08 l -0.08,0.01 c -1.34,0 -2.67,-1.41 -2.67,-2.83 0,-0.98 0.66,-1.67 1.59,-1.67 l 0.01,0.21 c -0.43,0 -0.87,0.31 -0.87,1.09 0,0.48 0.26,1.56 0.58,2.06 0.5,0.77 1.07,0.92 1.35,0.92 0.58,0 0.87,-0.48 0.87,-1.08 0,-0.38 -0.19,-1.43 -0.57,-2.07 -0.35,-0.58 -0.9,-0.92 -1.36,-0.92 v 0 l -0.01,-0.21 c 1.33,0 2.67,1.37 2.67,2.82 z" />
<path
   id="path5106"
   style="fill:#000000;fill-opacity:1;stroke:#000000;stroke-width:0.09373865;stroke-opacity:1;stroke-miterlimit:10.43299961;stroke-dasharray:none"
   d="m 296.84,657.82 v -0.01 -0.02 l -0.01,-0.01 v -0.02 l -0.01,-0.03 v -0.03 l -0.01,-0.03 -0.01,-0.04 -0.01,-0.03 v -0.03 l -0.01,-0.01 v -0.02 -0.01 l -0.01,-0.02 v -0.01 -0.01 -0.02 l -0.01,-0.01 v -0.01 -0.01 -0.01 -0.01 l -0.01,-0.01 v 0 -0.01 -0.01 c 0,-0.17 0.14,-0.26 0.29,-0.26 0.12,0 0.3,0.08 0.37,0.27 0.01,0.02 0.13,0.49 0.19,0.74 l 0.22,0.89 c 0.06,0.22 0.12,0.44 0.17,0.67 0.04,0.17 0.12,0.46 0.13,0.5 0.15,0.3 0.68,1.21 1.62,1.21 0.45,0 0.54,-0.37 0.54,-0.7 0,-0.61 -0.49,-1.89 -0.65,-2.31 -0.08,-0.23 -0.09,-0.35 -0.09,-0.46 0,-0.47 0.34,-0.81 0.81,-0.81 0.94,0 1.31,1.45 1.31,1.53 0,0.1 -0.09,0.1 -0.12,0.1 -0.1,0 -0.1,-0.04 -0.15,-0.18 -0.2,-0.68 -0.53,-1.24 -1.02,-1.24 -0.17,0 -0.24,0.1 -0.24,0.33 0,0.25 0.09,0.49 0.18,0.71 0.19,0.52 0.61,1.62 0.61,2.18 0,0.67 -0.43,1.07 -1.15,1.07 -0.89,0 -1.38,-0.64 -1.55,-0.87 -0.05,0.56 -0.46,0.87 -0.92,0.87 -0.46,0 -0.65,-0.39 -0.75,-0.57 -0.16,-0.34 -0.3,-0.92 -0.3,-0.96 0,-0.1 0.1,-0.1 0.12,-0.1 0.1,0 0.11,0.01 0.17,0.22 0.17,0.71 0.37,1.19 0.73,1.19 0.2,0 0.31,-0.13 0.31,-0.46 0,-0.21 -0.03,-0.32 -0.16,-0.83 z" />
<path
   id="path5108"
   style="fill:#000000;fill-opacity:1;stroke:#000000;stroke-width:0.09373865;stroke-opacity:1;stroke-miterlimit:10.43299961;stroke-dasharray:none"
   d="m 304.52,664.02 v 0 0 0 0.01 0 0 0 0.01 h -0.01 v 0.01 0 0 0.01 0 0.01 h -0.01 v 0.01 0 l -0.01,0.01 v 0 0.01 h -0.01 v 0 0 l -0.01,0.01 v 0 0 0 h -0.01 v 0.01 0 h -0.01 v 0 h -0.01 v 0 h -0.01 v 0 0.01 h -0.01 v 0 h -0.01 -0.01 v 0 h -0.01 v 0 c -0.23,0 -0.96,-0.08 -1.22,-0.1 -0.08,-0.01 -0.19,-0.02 -0.19,-0.21 0,-0.11 0.1,-0.11 0.25,-0.11 0.48,0 0.49,-0.09 0.49,-0.17 l -0.03,-0.2 -1.26,-4.96 c -0.03,-0.11 -0.05,-0.18 -0.05,-0.34 0,-0.57 0.44,-0.91 0.91,-0.91 0.33,0 0.58,0.19 0.75,0.55 0.18,0.38 0.3,0.96 0.3,0.98 0,0.1 -0.09,0.1 -0.12,0.1 -0.1,0 -0.11,-0.04 -0.14,-0.18 -0.17,-0.65 -0.36,-1.24 -0.76,-1.24 -0.3,0 -0.3,0.32 -0.3,0.46 0,0.24 0.01,0.29 0.06,0.48 z" />
<path
   id="path5110"
   style="fill:#000000;fill-opacity:1;stroke:#000000;stroke-width:0.09373865;stroke-opacity:1;stroke-miterlimit:10.43299961;stroke-dasharray:none"
   d="m 307.95,663.44 v 0.02 0.02 l -0.01,0.02 v 0.02 0.01 l -0.01,0.02 v 0.02 l -0.01,0.01 v 0.02 l -0.01,0.01 -0.01,0.02 -0.01,0.01 -0.01,0.02 -0.01,0.01 -0.01,0.01 -0.01,0.02 -0.01,0.01 -0.02,0.01 -0.01,0.01 -0.01,0.01 -0.02,0.01 -0.01,0.01 -0.02,0.01 h -0.02 l -0.01,0.01 -0.02,0.01 h -0.02 -0.02 l -0.02,0.01 h -0.02 -0.02 -0.02 c -0.27,0 -0.54,-0.26 -0.54,-0.52 0,-0.19 0.14,-0.36 0.38,-0.36 0.23,0 0.53,0.23 0.53,0.52 z" />
<path
   id="path5112"
   style="fill:#000000;fill-opacity:1;stroke:#000000;stroke-width:0.09373865;stroke-opacity:1;stroke-miterlimit:10.43299961;stroke-dasharray:none"
   d="m 307.19,659.71 0.01,0.02 0.01,0.03 0.01,0.02 0.01,0.02 0.01,0.03 0.01,0.02 v 0.01 l 0.01,0.02 0.01,0.02 v 0.02 l 0.01,0.01 0.01,0.02 v 0.01 l 0.01,0.02 0.01,0.02 0.01,0.03 0.01,0.03 v 0.02 l 0.01,0.01 v 0.02 l 0.01,0.01 0.01,0.02 v 0.02 l 0.01,0.02 0.01,0.01 v 0.03 l 0.01,0.02 0.01,0.02 0.01,0.02 c 0.08,0.2 0.13,0.34 0.13,0.53 0,0.45 -0.32,0.82 -0.82,0.82 -0.94,0 -1.31,-1.45 -1.31,-1.53 0,-0.1 0.1,-0.1 0.11,-0.1 0.11,0 0.12,0.02 0.16,0.17 0.27,0.94 0.67,1.24 1.01,1.24 0.08,0 0.25,0 0.25,-0.32 0,-0.21 -0.07,-0.42 -0.11,-0.52 -0.08,-0.26 -0.53,-1.41 -0.69,-1.84 -0.1,-0.25 -0.23,-0.58 -0.23,-0.79 0,-0.47 0.34,-0.81 0.82,-0.81 0.94,0 1.31,1.44 1.31,1.53 0,0.1 -0.09,0.1 -0.12,0.1 -0.1,0 -0.1,-0.04 -0.15,-0.18 -0.18,-0.63 -0.51,-1.24 -1.02,-1.24 -0.17,0 -0.24,0.1 -0.24,0.33 0,0.25 0.06,0.39 0.29,0.99 z" />
<path
   id="path5114"
   style="fill:#000000;fill-opacity:1;stroke:#000000;stroke-width:0.09373865;stroke-opacity:1;stroke-miterlimit:10.43299961;stroke-dasharray:none"
   d="m 309.43,657.82 -0.01,-0.01 v -0.02 -0.01 l -0.01,-0.02 v -0.03 l -0.01,-0.03 -0.01,-0.03 -0.01,-0.04 v -0.03 l -0.01,-0.03 v -0.01 l -0.01,-0.02 v -0.01 -0.02 l -0.01,-0.01 v -0.01 -0.02 -0.01 l -0.01,-0.01 v -0.01 -0.01 -0.01 -0.01 0 -0.01 -0.01 c 0,-0.17 0.14,-0.26 0.29,-0.26 0.11,0 0.29,0.08 0.36,0.27 0.01,0.02 0.13,0.49 0.19,0.74 l 0.22,0.89 c 0.06,0.22 0.12,0.44 0.17,0.67 0.04,0.17 0.12,0.46 0.13,0.5 0.15,0.3 0.68,1.21 1.63,1.21 0.45,0 0.54,-0.37 0.54,-0.7 0,-0.61 -0.49,-1.89 -0.65,-2.31 -0.09,-0.23 -0.1,-0.35 -0.1,-0.46 0,-0.47 0.35,-0.81 0.82,-0.81 0.93,0 1.3,1.45 1.3,1.53 0,0.1 -0.09,0.1 -0.12,0.1 -0.1,0 -0.1,-0.04 -0.15,-0.18 -0.2,-0.68 -0.52,-1.24 -1.01,-1.24 -0.17,0 -0.24,0.1 -0.24,0.33 0,0.25 0.09,0.49 0.18,0.71 0.19,0.52 0.61,1.62 0.61,2.18 0,0.67 -0.43,1.07 -1.15,1.07 -0.9,0 -1.39,-0.64 -1.56,-0.87 -0.05,0.56 -0.46,0.87 -0.91,0.87 -0.46,0 -0.65,-0.39 -0.75,-0.57 -0.16,-0.34 -0.3,-0.92 -0.3,-0.96 0,-0.1 0.1,-0.1 0.12,-0.1 0.1,0 0.11,0.01 0.17,0.22 0.17,0.71 0.37,1.19 0.73,1.19 0.19,0 0.3,-0.13 0.3,-0.46 0,-0.21 -0.03,-0.32 -0.16,-0.83 z" />
<path
   id="path5116"
   style="fill:#000000;fill-opacity:1;stroke:#000000;stroke-width:0.09373865;stroke-opacity:1;stroke-miterlimit:10.43299961;stroke-dasharray:none"
   d="m 316.39,659.53 h 0.03 0.03 0.04 0.03 0.04 0.04 0.04 l 0.04,0.01 h 0.05 0.04 0.05 l 0.05,0.01 h 0.05 l 0.05,0.01 0.11,0.01 0.1,0.01 0.11,0.01 0.11,0.02 0.11,0.02 0.11,0.03 0.05,0.01 0.05,0.02 0.05,0.01 0.05,0.02 0.05,0.02 0.05,0.02 c 0.7,0.3 0.75,0.88 0.75,1.02 0,0.44 -0.38,0.85 -1.07,0.85 v -0.22 c 0.47,0 0.74,-0.29 0.74,-0.63 0,-1.03 -1.6,-1.03 -2.01,-1.03 h -0.41 c 0.39,1.51 1.42,1.66 1.68,1.66 v 0.22 c -1.11,0 -2.61,-0.97 -2.61,-2.71 0,-1.01 0.59,-1.79 1.56,-1.79 1.43,0 2.27,1.05 2.27,1.17 0,0.06 -0.06,0.13 -0.12,0.13 -0.05,0 -0.07,-0.02 -0.13,-0.1 -0.79,-0.99 -1.88,-0.99 -2,-0.99 -0.78,0 -0.87,0.84 -0.87,1.16 0,0.12 0.01,0.42 0.16,1.03 z" />
<path
   id="path5118"
   style="fill:#000000;fill-opacity:1;stroke:#000000;stroke-width:0.09373865;stroke-opacity:1;stroke-miterlimit:10.43299961;stroke-dasharray:none"
   d="m 322.89,660.99 -0.02,0.03 -0.02,0.04 -0.02,0.03 -0.02,0.03 -0.02,0.03 -0.02,0.04 -0.02,0.03 -0.02,0.02 -0.02,0.03 -0.03,0.03 -0.02,0.03 -0.02,0.02 -0.03,0.03 -0.03,0.02 -0.02,0.02 -0.03,0.03 -0.03,0.02 -0.03,0.02 -0.03,0.01 -0.03,0.02 -0.03,0.02 -0.04,0.01 -0.03,0.02 -0.03,0.01 -0.04,0.01 -0.04,0.01 -0.03,0.01 h -0.04 l -0.04,0.01 h -0.04 l -0.04,0.01 h -0.04 c -1.17,0 -2.4,-1.47 -2.4,-2.91 0,-0.94 0.54,-1.59 1.32,-1.59 l 0.02,0.21 c -0.5,0 -0.64,0.55 -0.64,0.94 0,0.5 0.32,1.72 0.55,2.17 0.31,0.59 0.76,0.96 1.16,0.96 0.65,0 0.79,-0.82 0.79,-0.88 0,-0.06 -0.02,-0.12 -0.03,-0.17 l -0.5,-1.94 c -0.05,-0.18 -0.05,-0.2 -0.2,-0.37 -0.44,-0.55 -0.85,-0.71 -1.13,-0.71 l -0.02,-0.21 c 0.2,0 0.7,0.03 1.3,0.74 0.08,-0.42 0.43,-0.74 0.91,-0.74 0.35,0 0.57,0.22 0.73,0.54 0.17,0.36 0.3,0.97 0.3,0.99 0,0.1 -0.09,0.1 -0.12,0.1 -0.1,0 -0.11,-0.04 -0.14,-0.18 -0.17,-0.65 -0.35,-1.24 -0.75,-1.24 -0.27,0 -0.3,0.26 -0.3,0.46 0,0.22 0.02,0.3 0.13,0.74 0.11,0.41 0.13,0.51 0.22,0.89 l 0.35,1.39 c 0.07,0.28 0.07,0.3 0.07,0.34 0,0.17 -0.12,0.27 -0.29,0.27 -0.23,0 -0.38,-0.22 -0.41,-0.44 z" />
<path
   id="path5120"
   style="fill:#000000;fill-opacity:1;stroke:#000000;stroke-width:0.09373865;stroke-opacity:1;stroke-miterlimit:10.43299961;stroke-dasharray:none"
   d="m 325.31,657.82 v -0.01 l -0.01,-0.02 v -0.01 -0.02 l -0.01,-0.03 -0.01,-0.03 v -0.03 l -0.01,-0.04 -0.01,-0.03 -0.01,-0.03 v -0.01 -0.02 l -0.01,-0.01 v -0.02 -0.01 -0.01 l -0.01,-0.02 v -0.01 -0.01 -0.01 l -0.01,-0.01 v -0.01 -0.01 0 -0.01 -0.01 c 0,-0.17 0.14,-0.26 0.29,-0.26 0.12,0 0.3,0.08 0.37,0.27 0.02,0.04 0.36,1.39 0.4,1.57 0.08,0.33 0.26,1.03 0.32,1.3 0.04,0.12 0.32,0.59 0.55,0.81 0.08,0.07 0.37,0.33 0.8,0.33 0.26,0 0.41,-0.12 0.42,-0.12 -0.3,-0.05 -0.52,-0.29 -0.52,-0.55 0,-0.16 0.11,-0.35 0.38,-0.35 0.27,0 0.55,0.23 0.55,0.59 0,0.35 -0.32,0.65 -0.83,0.65 -0.65,0 -1.08,-0.49 -1.27,-0.77 -0.08,0.45 -0.44,0.77 -0.91,0.77 -0.46,0 -0.65,-0.39 -0.74,-0.57 -0.18,-0.34 -0.31,-0.93 -0.31,-0.96 0,-0.1 0.1,-0.1 0.12,-0.1 0.1,0 0.11,0.01 0.17,0.22 0.17,0.71 0.37,1.19 0.73,1.19 0.17,0 0.31,-0.08 0.31,-0.46 0,-0.21 -0.03,-0.32 -0.16,-0.83 z" />
<path
   id="path5122"
   style="fill:#000000;fill-opacity:1;stroke:#000000;stroke-width:0.09373865;stroke-opacity:1;stroke-miterlimit:10.43299961;stroke-dasharray:none"
   d="m 285.19,648.42 0.04,0.26 0.68,2.7 c 0.09,0.35 0.11,0.38 0.54,0.38 h 0.96 c 0.82,0 1.35,-0.27 1.35,-0.96 0,-0.38 -0.2,-1.24 -0.59,-1.6 -0.49,-0.44 -1.09,-0.52 -1.53,-0.52 h -1.41 l -0.04,-0.26 h 1.7 c 1.41,0 2.8,1.03 2.8,2.15 0,0.76 -0.66,1.5 -1.96,1.5 h -3.24 c -0.19,0 -0.29,0 -0.29,-0.19 0,-0.12 0.09,-0.12 0.28,-0.12 0.13,0 0.31,-0.01 0.43,-0.02 0.16,-0.02 0.22,-0.05 0.22,-0.16 0,-0.04 -0.01,-0.07 -0.04,-0.19 l -1.33,-5.34 c -0.1,-0.38 -0.12,-0.46 -0.91,-0.46 -0.17,0 -0.28,0 -0.28,-0.19 0,-0.12 0.12,-0.12 0.15,-0.12 0.28,0 0.99,0.03 1.27,0.03 0.21,0 0.43,-0.01 0.63,-0.01 0.22,0 0.44,-0.02 0.65,-0.02 0.07,0 0.2,0 0.2,0.2 0,0.11 -0.09,0.11 -0.28,0.11 -0.37,0 -0.65,0 -0.65,0.18 0,0.06 0.02,0.11 0.03,0.17 z" />
<path
   id="path5124"
   style="fill:#000000;fill-opacity:1;stroke:#000000;stroke-width:0.09373865;stroke-opacity:1;stroke-miterlimit:10.43299961;stroke-dasharray:none"
   d="m 291.82,647.58 h 0.03 0.03 0.03 0.04 0.03 0.04 0.04 0.05 0.04 l 0.05,0.01 h 0.05 0.05 l 0.05,0.01 h 0.05 l 0.1,0.01 0.11,0.01 0.11,0.02 0.11,0.02 0.1,0.02 0.11,0.02 0.05,0.02 0.06,0.01 0.05,0.02 0.05,0.02 0.04,0.01 0.05,0.02 c 0.7,0.3 0.75,0.89 0.75,1.03 0,0.43 -0.38,0.84 -1.07,0.84 v -0.22 c 0.47,0 0.74,-0.29 0.74,-0.62 0,-1.04 -1.59,-1.04 -2,-1.04 h -0.41 c 0.39,1.51 1.41,1.66 1.67,1.66 v 0.22 c -1.1,0 -2.61,-0.96 -2.61,-2.7 0,-1.01 0.59,-1.8 1.57,-1.8 1.42,0 2.26,1.05 2.26,1.17 0,0.06 -0.06,0.13 -0.12,0.13 -0.05,0 -0.07,-0.02 -0.13,-0.1 -0.79,-0.98 -1.87,-0.98 -1.99,-0.98 -0.78,0 -0.87,0.83 -0.87,1.15 0,0.12 0.01,0.43 0.16,1.04 z" />
<path
   id="path5126"
   style="fill:#000000;fill-opacity:1;stroke:#000000;stroke-width:0.09373865;stroke-opacity:1;stroke-miterlimit:10.43299961;stroke-dasharray:none"
   d="m 295.47,645.87 v -0.02 l -0.01,-0.01 v -0.02 -0.01 l -0.01,-0.03 -0.01,-0.04 -0.01,-0.03 v -0.03 l -0.01,-0.03 -0.01,-0.03 v -0.02 l -0.01,-0.01 v -0.02 -0.01 -0.02 l -0.01,-0.01 v -0.01 -0.01 -0.02 l -0.01,-0.01 v -0.01 0 -0.01 -0.01 -0.01 0 c 0,-0.18 0.14,-0.27 0.29,-0.27 0.12,0 0.3,0.08 0.37,0.28 0.01,0.02 0.13,0.49 0.19,0.73 l 0.22,0.9 c 0.06,0.22 0.12,0.44 0.16,0.66 0.04,0.17 0.12,0.46 0.13,0.5 0.15,0.31 0.68,1.21 1.63,1.21 0.45,0 0.54,-0.36 0.54,-0.69 0,-0.62 -0.49,-1.89 -0.65,-2.32 -0.09,-0.23 -0.1,-0.35 -0.1,-0.46 0,-0.46 0.35,-0.81 0.82,-0.81 0.94,0 1.3,1.45 1.3,1.53 0,0.1 -0.08,0.1 -0.11,0.1 -0.1,0 -0.1,-0.03 -0.15,-0.18 -0.2,-0.67 -0.53,-1.23 -1.02,-1.23 -0.17,0 -0.24,0.1 -0.24,0.33 0,0.25 0.09,0.48 0.18,0.7 0.19,0.53 0.61,1.62 0.61,2.19 0,0.66 -0.43,1.06 -1.15,1.06 -0.9,0 -1.39,-0.64 -1.56,-0.86 -0.05,0.55 -0.45,0.86 -0.91,0.86 -0.46,0 -0.65,-0.39 -0.75,-0.57 -0.16,-0.33 -0.3,-0.92 -0.3,-0.96 0,-0.1 0.1,-0.1 0.12,-0.1 0.1,0 0.11,0.01 0.17,0.23 0.17,0.7 0.37,1.18 0.73,1.18 0.2,0 0.31,-0.13 0.31,-0.46 0,-0.2 -0.03,-0.31 -0.16,-0.83 z" />
<path
   id="path5128"
   style="fill:#000000;fill-opacity:1;stroke:#000000;stroke-width:0.09373865;stroke-opacity:1;stroke-miterlimit:10.43299961;stroke-dasharray:none"
   d="m 305.72,652.07 v 0 0 0 0 0 0.01 0 h -0.01 v 0.01 0 0 0.01 0 0.01 0 l -0.01,0.01 v 0 0.01 h -0.01 v 0.01 h -0.01 v 0 0.01 0 h -0.01 v 0 0 l -0.01,0.01 v 0 0 h -0.01 v 0 0 l -0.01,0.01 v 0 h -0.01 v 0 h -0.01 v 0 h -0.01 v 0 h -0.01 v 0 h -0.01 v 0 c -0.15,0 -1.1,-0.08 -1.27,-0.1 -0.08,-0.02 -0.14,-0.06 -0.14,-0.19 0,-0.12 0.09,-0.12 0.24,-0.12 0.48,0 0.5,-0.07 0.5,-0.17 l -0.03,-0.2 -0.6,-2.36 c -0.18,0.37 -0.47,0.64 -0.92,0.64 -1.17,0 -2.4,-1.46 -2.4,-2.91 0,-0.93 0.55,-1.59 1.33,-1.59 l 0.02,0.22 c -0.5,0 -0.64,0.55 -0.64,0.93 0,0.5 0.32,1.72 0.55,2.18 0.3,0.59 0.75,0.95 1.15,0.95 0.65,0 0.79,-0.81 0.79,-0.87 0,-0.06 -0.02,-0.12 -0.03,-0.17 l -0.5,-1.95 c -0.05,-0.18 -0.05,-0.2 -0.2,-0.37 -0.44,-0.54 -0.85,-0.7 -1.12,-0.7 l -0.02,-0.22 c 0.19,0 0.69,0.04 1.29,0.75 0.08,-0.42 0.43,-0.75 0.91,-0.75 0.35,0 0.58,0.23 0.74,0.55 0.17,0.36 0.3,0.96 0.3,0.98 0,0.1 -0.09,0.1 -0.12,0.1 -0.1,0 -0.11,-0.04 -0.14,-0.18 -0.17,-0.65 -0.35,-1.23 -0.76,-1.23 -0.27,0 -0.3,0.26 -0.3,0.46 0,0.24 0.02,0.3 0.06,0.47 z" />
<path
   id="path5130"
   style="fill:#000000;fill-opacity:1;stroke:#000000;stroke-width:0.09373865;stroke-opacity:1;stroke-miterlimit:10.43299961;stroke-dasharray:none"
   d="m 309.25,645.84 0.01,-0.04 0.01,-0.04 0.01,-0.03 0.02,-0.04 0.01,-0.03 0.02,-0.04 0.02,-0.03 0.02,-0.03 0.02,-0.03 0.02,-0.03 0.03,-0.03 0.02,-0.02 0.03,-0.03 0.02,-0.02 0.03,-0.03 0.03,-0.02 0.03,-0.02 0.03,-0.02 0.03,-0.02 0.03,-0.02 0.04,-0.01 0.03,-0.02 0.03,-0.01 0.04,-0.01 0.03,-0.01 0.04,-0.01 0.04,-0.01 0.04,-0.01 h 0.03 l 0.04,-0.01 h 0.04 0.04 c 0.35,0 0.58,0.23 0.74,0.55 0.17,0.36 0.3,0.96 0.3,0.98 0,0.1 -0.09,0.1 -0.12,0.1 -0.1,0 -0.11,-0.04 -0.14,-0.18 -0.14,-0.55 -0.33,-1.23 -0.75,-1.23 -0.21,0 -0.31,0.13 -0.31,0.46 0,0.22 0.12,0.68 0.2,1.03 l 0.28,1.07 c 0.03,0.15 0.13,0.53 0.17,0.68 0.05,0.23 0.15,0.6 0.15,0.66 0,0.18 -0.14,0.27 -0.29,0.27 -0.05,0 -0.31,-0.01 -0.39,-0.35 -0.19,-0.72 -0.62,-2.46 -0.74,-2.99 -0.01,-0.04 -0.41,-0.83 -1.14,-0.83 -0.52,0 -0.62,0.45 -0.62,0.81 0,0.56 0.28,1.34 0.54,2.03 0.12,0.3 0.17,0.44 0.17,0.63 0,0.44 -0.32,0.81 -0.82,0.81 -0.95,0 -1.31,-1.44 -1.31,-1.53 0,-0.1 0.09,-0.1 0.11,-0.1 0.1,0 0.11,0.02 0.16,0.18 0.25,0.87 0.63,1.23 1.01,1.23 0.09,0 0.25,-0.01 0.25,-0.33 0,-0.23 -0.11,-0.52 -0.17,-0.67 -0.37,-0.98 -0.58,-1.6 -0.58,-2.09 0,-0.94 0.69,-1.19 1.23,-1.19 0.66,0 1.02,0.45 1.19,0.67 z" />
<path
   id="path5132"
   style="fill:#000000;fill-opacity:1;stroke:#000000;stroke-width:0.09373865;stroke-opacity:1;stroke-miterlimit:10.43299961;stroke-dasharray:none"
   d="m 314.03,652.07 v 0 0 0 0 0 0.01 0 0 0.01 0 0 0.01 0 l -0.01,0.01 v 0 0.01 0 l -0.01,0.01 v 0 l -0.01,0.01 v 0 0 0.01 h -0.01 v 0 0 h -0.01 v 0.01 0 h -0.01 v 0 0 h -0.01 v 0.01 h -0.01 v 0 h -0.01 v 0 0 h -0.01 -0.01 v 0 h -0.01 v 0 h -0.01 c -0.23,0 -0.95,-0.08 -1.21,-0.09 -0.08,-0.01 -0.19,-0.03 -0.19,-0.21 0,-0.11 0.1,-0.11 0.24,-0.11 0.48,0 0.49,-0.09 0.49,-0.17 l -0.03,-0.2 -1.25,-4.97 c -0.03,-0.11 -0.05,-0.18 -0.05,-0.33 0,-0.57 0.44,-0.92 0.9,-0.92 0.33,0 0.58,0.2 0.75,0.56 0.18,0.37 0.3,0.95 0.3,0.97 0,0.1 -0.09,0.1 -0.12,0.1 -0.1,0 -0.11,-0.04 -0.14,-0.18 -0.17,-0.65 -0.36,-1.23 -0.76,-1.23 -0.29,0 -0.29,0.32 -0.29,0.46 0,0.24 0.01,0.28 0.06,0.47 z" />
<path
   id="path5134"
   style="fill:#000000;fill-opacity:1;stroke:#000000;stroke-width:0.09373865;stroke-opacity:1;stroke-miterlimit:10.43299961;stroke-dasharray:none"
   d="m 318.12,645.84 0.01,-0.04 0.01,-0.04 0.02,-0.03 0.01,-0.04 0.02,-0.03 0.02,-0.04 0.02,-0.03 0.02,-0.03 0.02,-0.03 0.02,-0.03 0.02,-0.03 0.03,-0.02 0.02,-0.03 0.03,-0.02 0.03,-0.03 0.03,-0.02 0.02,-0.02 0.04,-0.02 0.03,-0.02 0.03,-0.02 0.03,-0.01 0.04,-0.02 0.03,-0.01 0.03,-0.01 0.04,-0.01 0.04,-0.01 0.03,-0.01 0.04,-0.01 h 0.04 l 0.04,-0.01 h 0.04 0.04 c 0.35,0 0.58,0.23 0.74,0.55 0.17,0.36 0.3,0.96 0.3,0.98 0,0.1 -0.09,0.1 -0.12,0.1 -0.1,0 -0.11,-0.04 -0.14,-0.18 -0.14,-0.55 -0.33,-1.23 -0.75,-1.23 -0.21,0 -0.31,0.13 -0.31,0.46 0,0.22 0.12,0.68 0.2,1.03 l 0.28,1.07 c 0.03,0.15 0.13,0.53 0.17,0.68 0.05,0.23 0.15,0.6 0.15,0.66 0,0.18 -0.14,0.27 -0.29,0.27 -0.05,0 -0.31,-0.01 -0.39,-0.35 -0.19,-0.72 -0.63,-2.46 -0.75,-2.99 -0.01,-0.04 -0.41,-0.83 -1.14,-0.83 -0.51,0 -0.61,0.45 -0.61,0.81 0,0.56 0.28,1.34 0.54,2.03 0.11,0.3 0.16,0.44 0.16,0.63 0,0.44 -0.32,0.81 -0.81,0.81 -0.95,0 -1.32,-1.44 -1.32,-1.53 0,-0.1 0.1,-0.1 0.12,-0.1 0.1,0 0.11,0.02 0.16,0.18 0.25,0.87 0.63,1.23 1.01,1.23 0.09,0 0.25,-0.01 0.25,-0.33 0,-0.23 -0.11,-0.52 -0.17,-0.67 -0.37,-0.98 -0.58,-1.6 -0.58,-2.09 0,-0.94 0.69,-1.19 1.22,-1.19 0.66,0 1.02,0.45 1.19,0.67 z" />
<path
   id="path5136"
   style="fill:#000000;fill-opacity:1;stroke:#000000;stroke-width:0.09373865;stroke-opacity:1;stroke-miterlimit:10.43299961;stroke-dasharray:none"
   d="m 321.21,645.87 v -0.02 -0.01 l -0.01,-0.02 v -0.01 l -0.01,-0.03 v -0.04 l -0.01,-0.03 -0.01,-0.03 -0.01,-0.03 v -0.03 l -0.01,-0.02 v -0.01 -0.02 l -0.01,-0.01 v -0.02 -0.01 l -0.01,-0.01 v -0.01 -0.02 -0.01 -0.01 h -0.01 v -0.01 -0.01 -0.01 0 c 0,-0.18 0.14,-0.27 0.29,-0.27 0.12,0 0.3,0.08 0.37,0.28 0.01,0.02 0.13,0.49 0.19,0.73 l 0.22,0.9 c 0.06,0.22 0.12,0.44 0.17,0.66 0.04,0.17 0.12,0.46 0.13,0.5 0.15,0.31 0.68,1.21 1.62,1.21 0.45,0 0.54,-0.36 0.54,-0.69 0,-0.25 -0.07,-0.53 -0.15,-0.83 l -0.28,-1.15 -0.2,-0.75 c -0.04,-0.2 -0.13,-0.54 -0.13,-0.59 0,-0.18 0.14,-0.27 0.29,-0.27 0.31,0 0.37,0.25 0.45,0.57 0.14,0.55 0.51,2 0.6,2.39 0.03,0.13 0.56,1.32 1.65,1.32 0.42,0 0.54,-0.34 0.54,-0.69 0,-0.57 -0.42,-1.7 -0.62,-2.23 -0.09,-0.24 -0.13,-0.35 -0.13,-0.55 0,-0.46 0.35,-0.81 0.81,-0.81 0.94,0 1.31,1.45 1.31,1.53 0,0.1 -0.09,0.1 -0.12,0.1 -0.1,0 -0.1,-0.03 -0.15,-0.18 -0.15,-0.53 -0.47,-1.23 -1.01,-1.23 -0.18,0 -0.24,0.1 -0.24,0.33 0,0.25 0.09,0.48 0.18,0.7 0.18,0.52 0.6,1.62 0.6,2.19 0,0.64 -0.4,1.06 -1.14,1.06 -0.75,0 -1.26,-0.44 -1.63,-0.96 -0.01,0.13 -0.04,0.46 -0.32,0.7 -0.25,0.21 -0.57,0.26 -0.82,0.26 -0.89,0 -1.38,-0.64 -1.55,-0.86 -0.05,0.56 -0.47,0.86 -0.92,0.86 -0.46,0 -0.65,-0.39 -0.74,-0.57 -0.18,-0.34 -0.31,-0.93 -0.31,-0.96 0,-0.1 0.1,-0.1 0.12,-0.1 0.1,0 0.11,0.01 0.17,0.23 0.17,0.7 0.37,1.18 0.73,1.18 0.16,0 0.31,-0.08 0.31,-0.46 0,-0.2 -0.03,-0.31 -0.16,-0.83 z" />
</g>  </g>
</svg>
